<svg width="1500" height="1500" viewBox="0 0 1500 1500" fill="none" xmlns="http://www.w3.org/2000/svg">
<rect width="1500" height="1500" />
<path d="M1475 470.757L1422.17 474.81C1367.38 410.634 1345.85 220.81 1022.98 257.964C1034.72 1071.3 1379.12 1157.1 1357.59 1323.95C1349.76 1418.53 1277.36 1476.62 1199.09 1480C951.878 1471.22 962.967 1126.02 885.999 255.938L567.038 255.938C583.997 562.629 630.308 869.32 635.526 1169.93C631.613 1369.89 514.204 1476.62 359.615 1477.97C105.229 1486.76 24.9999 1179.39 24.9998 1048.34L79.7907 1048.34C85.0089 1156.42 135.234 1234.11 242.206 1238.84C533.772 1242.89 373.313 707.868 371.356 259.991L24.9998 262.018L26.9567 33.0125C1466.55 25.7904 1283.82 -3.43861 1475 470.757Z" fill="black"/>
<!-- <path d="M691 5L767.763 448.404" stroke="white" stroke-width="50"/> -->
</svg>
