<svg width="1650" height="1450" viewBox="0 0 1650 1450" fill="none" xmlns="http://www.w3.org/2000/svg">
<path d="M1650 440.756L1597.17 444.81C1586.57 432.403 1577.23 415.301 1566.7 396.051C1522.79 315.724 1458.43 197.993 1197.98 227.964C1205.82 771.214 1362.07 989.888 1458.56 1124.93C1506.54 1192.07 1539.74 1238.54 1532.59 1293.95C1524.76 1388.53 1452.36 1446.62 1374.09 1450C1160.77 1442.42 1139.78 1184.34 1088.58 554.644C1080.45 454.614 1071.55 345.208 1061 225.938L810.527 232.017L810.527 3.01253C1399.82 7.09741 1506.92 49.1895 1599.16 305.556C1613.47 345.319 1629.61 390.174 1650 440.756Z" fill="#FFC107"/>
<path d="M542.038 225.938C558.997 532.629 605.308 839.32 610.527 1139.93C606.613 1339.89 489.204 1446.62 334.616 1447.97C80.2296 1456.76 0.000100483 1149.39 8.90257e-05 1018.34L54.791 1018.34C60.0092 1126.42 110.234 1204.11 217.207 1208.84C508.772 1212.89 348.313 677.868 346.356 229.991L2.02836e-05 232.018L1.95691 3.01253C297.94 1.52763 525.344 -0.887539 701.518 0.333672L701.518 225.938L542.038 225.938Z" fill="#FFC107"/>
</svg>
