<svg width="1650" height="1450" fill="none" xmlns="http://www.w3.org/2000/svg">
  <style>
    path {
      fill: black;
    }

    @media (prefers-color-scheme: dark) {
      path {
        fill: white;
      }
    }
  </style>
  <path
    d="m1650 440.756-52.83 4.054c-10.6-12.407-19.94-29.509-30.47-48.759-43.91-80.327-108.27-198.058-368.72-168.087 7.84 543.25 164.09 761.924 260.58 896.966 47.98 67.14 81.18 113.61 74.03 169.02-7.83 94.58-80.23 152.67-158.5 156.05-213.32-7.58-234.31-265.66-285.51-895.356-8.13-100.03-17.03-209.436-27.58-328.706l-250.473 6.079V3.013C1399.82 7.097 1506.92 49.19 1599.16 305.556c14.31 39.763 30.45 84.618 50.84 135.2zM542.038 225.938c16.959 306.691 63.27 613.382 68.489 913.992-3.914 199.96-121.323 306.69-275.911 308.04C80.23 1456.76 0 1149.39 0 1018.34h54.791c5.218 108.08 55.443 185.77 162.416 190.5 291.565 4.05 131.106-530.972 129.149-978.849L0 232.018 1.957 3.013C297.94 1.528 525.344-.887 701.518.333v225.605h-159.48z"
    fill="currentColor" />
</svg>